G75*
%MOIN*%
%OFA0B0*%
%FSLAX25Y25*%
%IPPOS*%
%LPD*%
%AMOC8*
5,1,8,0,0,1.08239X$1,22.5*
%
%ADD10C,0.00000*%
%ADD11C,0.07874*%
%ADD12C,0.06000*%
%ADD13R,0.04331X0.03937*%
%ADD14R,0.06299X0.09055*%
%ADD15R,0.03937X0.04331*%
%ADD16C,0.05000*%
%ADD17C,0.02400*%
%ADD18C,0.01500*%
%ADD19C,0.02500*%
D10*
X0001000Y0001000D02*
X0001000Y0200961D01*
X0139701Y0200961D01*
X0139701Y0001000D01*
X0001000Y0001000D01*
D11*
X0022063Y0168795D02*
X0029937Y0168795D01*
X0029937Y0192811D02*
X0022063Y0192811D01*
X0007102Y0184937D02*
X0007102Y0177063D01*
D12*
X0008000Y0126000D02*
X0014000Y0126000D01*
X0014000Y0116000D02*
X0008000Y0116000D01*
X0008000Y0106000D02*
X0014000Y0106000D01*
X0014000Y0096000D02*
X0008000Y0096000D01*
X0008000Y0086000D02*
X0014000Y0086000D01*
X0014000Y0076000D02*
X0008000Y0076000D01*
X0008000Y0066000D02*
X0014000Y0066000D01*
X0014000Y0056000D02*
X0008000Y0056000D01*
X0008000Y0046000D02*
X0014000Y0046000D01*
X0011000Y0016500D02*
X0011000Y0010500D01*
X0021000Y0010500D02*
X0021000Y0016500D01*
X0031000Y0016500D02*
X0031000Y0010500D01*
X0041000Y0010500D02*
X0041000Y0016500D01*
X0051000Y0016500D02*
X0051000Y0010500D01*
X0086000Y0010500D02*
X0086000Y0016500D01*
X0096000Y0016500D02*
X0096000Y0010500D01*
X0094000Y0046000D02*
X0088000Y0046000D01*
X0088000Y0056000D02*
X0094000Y0056000D01*
X0094000Y0066000D02*
X0088000Y0066000D01*
X0088000Y0076000D02*
X0094000Y0076000D01*
X0094000Y0086000D02*
X0088000Y0086000D01*
X0088000Y0096000D02*
X0094000Y0096000D01*
X0094000Y0106000D02*
X0088000Y0106000D01*
X0088000Y0116000D02*
X0094000Y0116000D01*
X0094000Y0126000D02*
X0088000Y0126000D01*
X0123000Y0121000D02*
X0129000Y0121000D01*
X0129000Y0131000D02*
X0123000Y0131000D01*
X0123000Y0141000D02*
X0129000Y0141000D01*
X0126000Y0183000D02*
X0126000Y0189000D01*
X0116000Y0189000D02*
X0116000Y0183000D01*
X0106000Y0183000D02*
X0106000Y0189000D01*
X0081000Y0189000D02*
X0081000Y0183000D01*
X0071000Y0183000D02*
X0071000Y0189000D01*
X0061000Y0189000D02*
X0061000Y0183000D01*
X0123000Y0086000D02*
X0129000Y0086000D01*
X0129000Y0076000D02*
X0123000Y0076000D01*
X0123000Y0066000D02*
X0129000Y0066000D01*
D13*
X0131000Y0162654D03*
X0131000Y0169346D03*
X0106000Y0169346D03*
X0106000Y0162654D03*
X0081000Y0162654D03*
X0081000Y0169346D03*
X0061000Y0169346D03*
X0061000Y0162654D03*
D14*
X0121000Y0038402D03*
X0121000Y0013598D03*
D15*
X0069346Y0006000D03*
X0062654Y0006000D03*
D16*
X0041000Y0016000D02*
X0056000Y0031000D01*
X0101000Y0031000D01*
X0128500Y0058500D01*
X0131000Y0058500D01*
X0136000Y0063500D01*
X0136000Y0123500D01*
X0128500Y0131000D01*
X0126000Y0131000D01*
X0126000Y0076000D02*
X0123500Y0076000D01*
X0116000Y0068500D01*
X0116000Y0058500D01*
X0096000Y0038500D01*
X0053500Y0038500D01*
X0031000Y0016000D01*
X0031000Y0013500D01*
X0021000Y0013500D02*
X0021000Y0033500D01*
X0076000Y0088500D01*
X0076000Y0158500D01*
X0066000Y0136000D02*
X0062250Y0132250D01*
X0066000Y0128500D01*
X0066000Y0088500D01*
X0011000Y0033500D01*
X0011000Y0013500D01*
X0041000Y0013500D02*
X0041000Y0016000D01*
X0062250Y0132250D02*
X0026000Y0168500D01*
X0026000Y0168795D01*
X0026000Y0192811D02*
X0026000Y0193500D01*
X0028500Y0196000D01*
X0073500Y0196000D01*
X0081000Y0188500D01*
X0081000Y0186000D01*
X0081000Y0191000D01*
X0098500Y0191000D01*
X0103500Y0196000D01*
X0118500Y0196000D01*
X0126000Y0188500D01*
X0126000Y0186000D01*
D17*
X0086000Y0168500D03*
X0076000Y0158500D03*
X0066000Y0136000D03*
X0048500Y0161000D03*
X0059500Y0092500D03*
X0063500Y0026000D03*
D18*
X0071000Y0021000D02*
X0088500Y0021000D01*
X0096000Y0013500D01*
X0098500Y0013500D01*
X0121000Y0036000D01*
X0121000Y0038402D01*
X0126000Y0086000D02*
X0111000Y0086000D01*
X0091000Y0106000D01*
X0091000Y0116000D02*
X0136000Y0161000D01*
X0136000Y0166000D01*
X0133500Y0168500D01*
X0131000Y0168500D01*
X0131000Y0169346D01*
X0136000Y0161000D02*
X0136000Y0151000D01*
X0126000Y0141000D01*
X0106000Y0169346D02*
X0106000Y0186000D01*
X0086000Y0168500D02*
X0081000Y0168500D01*
X0081000Y0169346D01*
X0061000Y0169346D02*
X0061000Y0186000D01*
X0071000Y0021000D02*
X0071000Y0006000D01*
X0069346Y0006000D01*
D19*
X0063500Y0006000D02*
X0062654Y0006000D01*
X0063500Y0006000D02*
X0063500Y0026000D01*
X0086000Y0013500D02*
X0086000Y0011000D01*
X0093500Y0003500D01*
X0098500Y0003500D01*
X0108500Y0013500D01*
X0121000Y0013500D01*
X0121000Y0013598D01*
X0059500Y0092500D02*
X0026000Y0126000D01*
X0011000Y0126000D01*
X0048500Y0161000D02*
X0061000Y0161000D01*
X0061000Y0162654D01*
X0061000Y0163500D01*
X0081000Y0163500D01*
X0081000Y0162654D01*
X0081000Y0163500D02*
X0106000Y0163500D01*
X0106000Y0162654D01*
X0106000Y0163500D02*
X0131000Y0163500D01*
X0131000Y0162654D01*
M02*
