G75*
%MOIN*%
%OFA0B0*%
%FSLAX25Y25*%
%IPPOS*%
%LPD*%
%AMOC8*
5,1,8,0,0,1.08239X$1,22.5*
%
%ADD10C,0.00000*%
%ADD11C,0.00500*%
%ADD12C,0.00800*%
%ADD13C,0.00400*%
D10*
X0001000Y0001000D02*
X0001000Y0200961D01*
X0139701Y0200961D01*
X0139701Y0001000D01*
X0001000Y0001000D01*
D11*
X0026313Y0061250D02*
X0026313Y0062601D01*
X0026763Y0063052D01*
X0028115Y0063052D01*
X0028115Y0061250D01*
X0029178Y0061250D02*
X0030079Y0061250D01*
X0029629Y0061250D02*
X0029629Y0063052D01*
X0030079Y0063052D01*
X0029629Y0063952D02*
X0029629Y0064403D01*
X0031224Y0062601D02*
X0031224Y0061250D01*
X0032575Y0061250D01*
X0033025Y0061700D01*
X0032575Y0062151D01*
X0031224Y0062151D01*
X0031224Y0062601D02*
X0031674Y0063052D01*
X0032575Y0063052D01*
X0034170Y0062601D02*
X0034170Y0061250D01*
X0035071Y0061250D02*
X0035071Y0062601D01*
X0034621Y0063052D01*
X0034170Y0062601D01*
X0035071Y0062601D02*
X0035522Y0063052D01*
X0035972Y0063052D01*
X0035972Y0061250D01*
X0037117Y0061700D02*
X0037117Y0062601D01*
X0037567Y0063052D01*
X0038468Y0063052D01*
X0038919Y0062601D01*
X0038919Y0061700D01*
X0038468Y0061250D01*
X0037567Y0061250D01*
X0037117Y0061700D01*
X0040064Y0061250D02*
X0040964Y0062151D01*
X0040514Y0062151D02*
X0041865Y0062151D01*
X0041865Y0061250D02*
X0041865Y0063952D01*
X0040514Y0063952D01*
X0040064Y0063502D01*
X0040064Y0062601D01*
X0040514Y0062151D01*
X0042929Y0061250D02*
X0043829Y0061250D01*
X0043379Y0061250D02*
X0043379Y0063052D01*
X0043829Y0063052D01*
X0043379Y0063952D02*
X0043379Y0064403D01*
X0044974Y0063502D02*
X0044974Y0062601D01*
X0045425Y0062151D01*
X0046776Y0062151D01*
X0045875Y0062151D02*
X0044974Y0061250D01*
X0044974Y0063502D02*
X0045425Y0063952D01*
X0046776Y0063952D01*
X0046776Y0061250D01*
X0047921Y0063952D02*
X0049722Y0061250D01*
X0050867Y0061250D02*
X0050867Y0062601D01*
X0051318Y0063052D01*
X0051768Y0062601D01*
X0051768Y0061250D01*
X0052669Y0061250D02*
X0052669Y0063052D01*
X0052219Y0063052D01*
X0051768Y0062601D01*
X0053814Y0062601D02*
X0053814Y0061700D01*
X0054264Y0061250D01*
X0055165Y0061250D01*
X0055615Y0061700D01*
X0055615Y0062601D01*
X0055165Y0063052D01*
X0054264Y0063052D01*
X0053814Y0062601D01*
X0056760Y0063052D02*
X0058112Y0063052D01*
X0058562Y0062601D01*
X0058562Y0061700D01*
X0058112Y0061250D01*
X0056760Y0061250D01*
X0059585Y0061250D02*
X0060035Y0061250D01*
X0060035Y0061700D01*
X0059585Y0061700D01*
X0059585Y0061250D01*
X0061180Y0061700D02*
X0061180Y0062601D01*
X0061631Y0063052D01*
X0062982Y0063052D01*
X0062982Y0063952D02*
X0062982Y0061250D01*
X0061631Y0061250D01*
X0061180Y0061700D01*
X0064127Y0061250D02*
X0064127Y0063052D01*
X0065928Y0063052D02*
X0065928Y0061700D01*
X0065478Y0061250D01*
X0064127Y0061250D01*
X0067073Y0061250D02*
X0067073Y0062601D01*
X0067524Y0063052D01*
X0068424Y0063052D01*
X0068875Y0062601D01*
X0069938Y0063052D02*
X0070839Y0063052D01*
X0070389Y0063502D02*
X0070389Y0061700D01*
X0069938Y0061250D01*
X0068875Y0061250D02*
X0068875Y0063952D01*
X0071903Y0061250D02*
X0072803Y0061250D01*
X0072353Y0061250D02*
X0072353Y0063052D01*
X0072803Y0063052D01*
X0072353Y0063952D02*
X0072353Y0064403D01*
X0073948Y0063052D02*
X0073948Y0060800D01*
X0074399Y0060349D01*
X0074849Y0060349D01*
X0075300Y0061250D02*
X0073948Y0061250D01*
X0075300Y0061250D02*
X0075750Y0061700D01*
X0075750Y0062601D01*
X0075300Y0063052D01*
X0073948Y0063052D01*
X0084465Y0067693D02*
X0084465Y0154307D01*
X0017535Y0154307D01*
X0017535Y0067693D01*
X0084465Y0067693D01*
D12*
X0091947Y0031204D02*
X0091146Y0030403D01*
X0091947Y0031204D02*
X0093548Y0031204D01*
X0094349Y0030403D01*
X0094349Y0027201D01*
X0093548Y0026400D01*
X0091947Y0026400D01*
X0091146Y0027201D01*
X0089192Y0027201D02*
X0088392Y0026400D01*
X0086790Y0026400D01*
X0085990Y0027201D01*
X0085990Y0028802D01*
X0086790Y0029603D01*
X0088392Y0029603D01*
X0089192Y0028802D01*
X0089192Y0027201D01*
X0084036Y0026400D02*
X0084036Y0029603D01*
X0081634Y0029603D01*
X0080833Y0028802D01*
X0080833Y0026400D01*
X0078079Y0027201D02*
X0078079Y0030403D01*
X0078880Y0029603D02*
X0077278Y0029603D01*
X0075442Y0029603D02*
X0075442Y0026400D01*
X0075442Y0028001D02*
X0073841Y0029603D01*
X0073040Y0029603D01*
X0071145Y0028802D02*
X0071145Y0027201D01*
X0070344Y0026400D01*
X0068743Y0026400D01*
X0067942Y0027201D01*
X0067942Y0028802D01*
X0068743Y0029603D01*
X0070344Y0029603D01*
X0071145Y0028802D01*
X0065989Y0026400D02*
X0064387Y0026400D01*
X0065188Y0026400D02*
X0065188Y0031204D01*
X0065989Y0031204D01*
X0057395Y0031204D02*
X0057395Y0026400D01*
X0054993Y0026400D01*
X0054192Y0027201D01*
X0054192Y0028802D01*
X0054993Y0029603D01*
X0057395Y0029603D01*
X0052238Y0028802D02*
X0052238Y0027201D01*
X0051438Y0026400D01*
X0049836Y0026400D01*
X0049036Y0027201D01*
X0049036Y0028802D01*
X0049836Y0029603D01*
X0051438Y0029603D01*
X0052238Y0028802D01*
X0047082Y0027201D02*
X0046281Y0028001D01*
X0043879Y0028001D01*
X0043879Y0028802D02*
X0043879Y0026400D01*
X0046281Y0026400D01*
X0047082Y0027201D01*
X0046281Y0029603D02*
X0044680Y0029603D01*
X0043879Y0028802D01*
X0041925Y0028001D02*
X0040324Y0029603D01*
X0039523Y0029603D01*
X0041925Y0029603D02*
X0041925Y0026400D01*
X0037628Y0027201D02*
X0036828Y0026400D01*
X0034426Y0026400D01*
X0034426Y0031204D01*
X0034426Y0029603D02*
X0036828Y0029603D01*
X0037628Y0028802D01*
X0037628Y0027201D01*
X0027316Y0029603D02*
X0025714Y0026400D01*
X0024113Y0029603D01*
X0022159Y0030403D02*
X0022159Y0027201D01*
X0018957Y0030403D01*
X0018957Y0027201D01*
X0019757Y0026400D01*
X0021359Y0026400D01*
X0022159Y0027201D01*
X0022159Y0030403D02*
X0021359Y0031204D01*
X0019757Y0031204D01*
X0018957Y0030403D01*
X0017003Y0027201D02*
X0016202Y0027201D01*
X0016202Y0026400D01*
X0017003Y0026400D01*
X0017003Y0027201D01*
X0014425Y0026400D02*
X0011222Y0026400D01*
X0012823Y0026400D02*
X0012823Y0031204D01*
X0014425Y0029603D01*
X0077278Y0026400D02*
X0078079Y0027201D01*
X0101459Y0027201D02*
X0102260Y0026400D01*
X0104662Y0026400D01*
X0104662Y0031204D01*
X0102260Y0031204D01*
X0101459Y0030403D01*
X0101459Y0029603D01*
X0102260Y0028802D01*
X0104662Y0028802D01*
X0106615Y0028802D02*
X0108217Y0028802D01*
X0106615Y0028802D02*
X0106615Y0027201D01*
X0107416Y0026400D01*
X0109017Y0026400D01*
X0109818Y0027201D01*
X0109818Y0030403D01*
X0109017Y0031204D01*
X0107416Y0031204D01*
X0106615Y0030403D01*
X0102260Y0028802D02*
X0101459Y0028001D01*
X0101459Y0027201D01*
X0111772Y0026400D02*
X0113373Y0028001D01*
X0112572Y0028001D02*
X0114974Y0028001D01*
X0114974Y0026400D02*
X0114974Y0031204D01*
X0112572Y0031204D01*
X0111772Y0030403D01*
X0111772Y0028802D01*
X0112572Y0028001D01*
X0122084Y0026400D02*
X0124487Y0028802D01*
X0125287Y0028001D02*
X0122084Y0031204D01*
X0125287Y0031204D02*
X0125287Y0026400D01*
X0127241Y0026400D02*
X0127241Y0029603D01*
X0128842Y0031204D01*
X0130444Y0029603D01*
X0130444Y0026400D01*
X0132397Y0027201D02*
X0132397Y0030403D01*
X0133198Y0031204D01*
X0134799Y0031204D01*
X0135600Y0030403D01*
X0135600Y0027201D01*
X0134799Y0026400D01*
X0133198Y0026400D01*
X0132397Y0027201D01*
X0130444Y0028802D02*
X0127241Y0028802D01*
D13*
X0075804Y0078552D02*
X0075037Y0077784D01*
X0071967Y0077784D01*
X0071200Y0078552D01*
X0071200Y0080086D01*
X0071967Y0080854D01*
X0075037Y0080854D01*
X0075804Y0080086D01*
X0075804Y0078552D01*
X0075804Y0082388D02*
X0071967Y0082388D01*
X0071200Y0083155D01*
X0071200Y0084690D01*
X0071967Y0085457D01*
X0075804Y0085457D01*
X0075804Y0086992D02*
X0075804Y0090061D01*
X0075804Y0088527D02*
X0071200Y0088527D01*
X0073502Y0091596D02*
X0073502Y0094665D01*
X0075037Y0093131D02*
X0071967Y0093131D01*
X0071200Y0131423D02*
X0071200Y0132957D01*
X0071200Y0132190D02*
X0075804Y0132190D01*
X0075804Y0131423D02*
X0075804Y0132957D01*
X0075804Y0134492D02*
X0071200Y0137561D01*
X0075804Y0137561D01*
X0073502Y0139096D02*
X0073502Y0142165D01*
X0075037Y0140631D02*
X0071967Y0140631D01*
X0071200Y0134492D02*
X0075804Y0134492D01*
X0028304Y0134492D02*
X0023700Y0137561D01*
X0028304Y0137561D01*
X0028304Y0134492D02*
X0023700Y0134492D01*
X0023700Y0132957D02*
X0023700Y0131423D01*
X0023700Y0132190D02*
X0028304Y0132190D01*
X0028304Y0131423D02*
X0028304Y0132957D01*
X0026002Y0139096D02*
X0026002Y0142165D01*
X0026002Y0092165D02*
X0026002Y0089096D01*
X0028304Y0087561D02*
X0028304Y0084492D01*
X0028304Y0082957D02*
X0024467Y0082957D01*
X0023700Y0082190D01*
X0023700Y0080655D01*
X0024467Y0079888D01*
X0028304Y0079888D01*
X0027537Y0078354D02*
X0028304Y0077586D01*
X0028304Y0076052D01*
X0027537Y0075284D01*
X0024467Y0075284D01*
X0023700Y0076052D01*
X0023700Y0077586D01*
X0024467Y0078354D01*
X0027537Y0078354D01*
X0028304Y0086027D02*
X0023700Y0086027D01*
M02*
