G75*
%MOIN*%
%OFA0B0*%
%FSLAX25Y25*%
%IPPOS*%
%LPD*%
%AMOC8*
5,1,8,0,0,1.08239X$1,22.5*
%
%ADD10C,0.00000*%
%ADD11C,0.07874*%
%ADD12C,0.06000*%
%ADD13C,0.04500*%
%ADD14C,0.05000*%
%ADD15C,0.02400*%
%ADD16C,0.01500*%
%ADD17C,0.02500*%
D10*
X0001000Y0001000D02*
X0001000Y0200961D01*
X0139701Y0200961D01*
X0139701Y0001000D01*
X0001000Y0001000D01*
D11*
X0022063Y0168795D02*
X0029937Y0168795D01*
X0029937Y0192811D02*
X0022063Y0192811D01*
X0007102Y0184937D02*
X0007102Y0177063D01*
D12*
X0008000Y0126000D02*
X0014000Y0126000D01*
X0014000Y0116000D02*
X0008000Y0116000D01*
X0008000Y0106000D02*
X0014000Y0106000D01*
X0014000Y0096000D02*
X0008000Y0096000D01*
X0008000Y0086000D02*
X0014000Y0086000D01*
X0014000Y0076000D02*
X0008000Y0076000D01*
X0008000Y0066000D02*
X0014000Y0066000D01*
X0014000Y0056000D02*
X0008000Y0056000D01*
X0008000Y0046000D02*
X0014000Y0046000D01*
X0011000Y0016500D02*
X0011000Y0010500D01*
X0021000Y0010500D02*
X0021000Y0016500D01*
X0031000Y0016500D02*
X0031000Y0010500D01*
X0041000Y0010500D02*
X0041000Y0016500D01*
X0051000Y0016500D02*
X0051000Y0010500D01*
X0086000Y0010500D02*
X0086000Y0016500D01*
X0096000Y0016500D02*
X0096000Y0010500D01*
X0094000Y0046000D02*
X0088000Y0046000D01*
X0088000Y0056000D02*
X0094000Y0056000D01*
X0094000Y0066000D02*
X0088000Y0066000D01*
X0088000Y0076000D02*
X0094000Y0076000D01*
X0094000Y0086000D02*
X0088000Y0086000D01*
X0088000Y0096000D02*
X0094000Y0096000D01*
X0094000Y0106000D02*
X0088000Y0106000D01*
X0088000Y0116000D02*
X0094000Y0116000D01*
X0094000Y0126000D02*
X0088000Y0126000D01*
X0123000Y0121000D02*
X0129000Y0121000D01*
X0129000Y0131000D02*
X0123000Y0131000D01*
X0123000Y0141000D02*
X0129000Y0141000D01*
X0126000Y0183000D02*
X0126000Y0189000D01*
X0116000Y0189000D02*
X0116000Y0183000D01*
X0106000Y0183000D02*
X0106000Y0189000D01*
X0081000Y0189000D02*
X0081000Y0183000D01*
X0071000Y0183000D02*
X0071000Y0189000D01*
X0061000Y0189000D02*
X0061000Y0183000D01*
X0123000Y0086000D02*
X0129000Y0086000D01*
X0129000Y0076000D02*
X0123000Y0076000D01*
X0123000Y0066000D02*
X0129000Y0066000D01*
D13*
X0076550Y0070750D02*
X0076550Y0076250D01*
X0077050Y0076250D01*
X0077050Y0070750D01*
X0076550Y0070750D01*
X0076550Y0075249D02*
X0077050Y0075249D01*
X0068650Y0076250D02*
X0068650Y0070750D01*
X0068650Y0076250D02*
X0069150Y0076250D01*
X0069150Y0070750D01*
X0068650Y0070750D01*
X0068650Y0075249D02*
X0069150Y0075249D01*
X0031150Y0076250D02*
X0031150Y0070750D01*
X0031150Y0076250D02*
X0031650Y0076250D01*
X0031650Y0070750D01*
X0031150Y0070750D01*
X0031150Y0075249D02*
X0031650Y0075249D01*
X0023250Y0076250D02*
X0023250Y0070750D01*
X0023250Y0076250D02*
X0023750Y0076250D01*
X0023750Y0070750D01*
X0023250Y0070750D01*
X0023250Y0075249D02*
X0023750Y0075249D01*
X0023250Y0145750D02*
X0023250Y0151250D01*
X0023750Y0151250D01*
X0023750Y0145750D01*
X0023250Y0145750D01*
X0023250Y0150249D02*
X0023750Y0150249D01*
X0031150Y0151250D02*
X0031150Y0145750D01*
X0031150Y0151250D02*
X0031650Y0151250D01*
X0031650Y0145750D01*
X0031150Y0145750D01*
X0031150Y0150249D02*
X0031650Y0150249D01*
X0068650Y0151250D02*
X0068650Y0145750D01*
X0068650Y0151250D02*
X0069150Y0151250D01*
X0069150Y0145750D01*
X0068650Y0145750D01*
X0068650Y0150249D02*
X0069150Y0150249D01*
X0076550Y0151250D02*
X0076550Y0145750D01*
X0076550Y0151250D02*
X0077050Y0151250D01*
X0077050Y0145750D01*
X0076550Y0145750D01*
X0076550Y0150249D02*
X0077050Y0150249D01*
D14*
X0076800Y0148500D02*
X0068900Y0148500D01*
X0068500Y0148500D01*
X0066000Y0146000D01*
X0066000Y0136000D01*
X0076000Y0158500D02*
X0071000Y0163500D01*
X0071000Y0186000D01*
X0058500Y0196000D02*
X0116000Y0196000D01*
X0116000Y0186000D01*
X0126000Y0186000D02*
X0136000Y0176000D01*
X0136000Y0128500D01*
X0126000Y0118500D01*
X0126000Y0121000D01*
X0116000Y0111000D01*
X0116000Y0066000D01*
X0126000Y0066000D01*
X0053500Y0016000D02*
X0053500Y0191000D01*
X0058500Y0196000D01*
X0026000Y0192811D02*
X0026000Y0183500D01*
X0013500Y0171000D01*
X0013500Y0158500D01*
X0023500Y0148500D01*
X0053500Y0016000D02*
X0051000Y0013500D01*
D15*
X0063500Y0026000D03*
X0059500Y0092500D03*
X0066000Y0136000D03*
X0076000Y0158500D03*
X0086000Y0168500D03*
X0048500Y0161000D03*
D16*
X0061000Y0186000D02*
X0061000Y0126000D01*
X0091000Y0096000D01*
X0091000Y0086000D02*
X0106000Y0086000D01*
X0106000Y0186000D01*
X0086000Y0168500D02*
X0083500Y0166000D01*
X0083500Y0113500D01*
X0091000Y0106000D01*
X0091000Y0076000D02*
X0098500Y0076000D01*
X0098500Y0016000D01*
X0096000Y0013500D01*
D17*
X0086000Y0013500D02*
X0086000Y0003500D01*
X0048500Y0003500D01*
X0046000Y0006000D01*
X0046000Y0023500D01*
X0013500Y0056000D01*
X0011000Y0056000D01*
X0013500Y0056000D02*
X0021000Y0063500D01*
X0021000Y0071000D01*
X0023500Y0073500D01*
X0023500Y0076000D01*
X0036000Y0088500D01*
X0036000Y0148500D01*
X0048500Y0161000D01*
X0059500Y0092500D02*
X0076000Y0076000D01*
X0076000Y0073500D01*
X0076800Y0073500D01*
X0076000Y0073500D02*
X0076000Y0038500D01*
X0063500Y0026000D01*
M02*
