G75*
%MOIN*%
%OFA0B0*%
%FSLAX25Y25*%
%IPPOS*%
%LPD*%
%AMOC8*
5,1,8,0,0,1.08239X$1,22.5*
%
%ADD10C,0.00000*%
%ADD11C,0.04500*%
D10*
X0001000Y0001000D02*
X0001000Y0200961D01*
X0139701Y0200961D01*
X0139701Y0001000D01*
X0001000Y0001000D01*
D11*
X0023250Y0070750D02*
X0023250Y0076250D01*
X0023750Y0076250D01*
X0023750Y0070750D01*
X0023250Y0070750D01*
X0023250Y0075249D02*
X0023750Y0075249D01*
X0031150Y0076250D02*
X0031150Y0070750D01*
X0031150Y0076250D02*
X0031650Y0076250D01*
X0031650Y0070750D01*
X0031150Y0070750D01*
X0031150Y0075249D02*
X0031650Y0075249D01*
X0068650Y0076250D02*
X0068650Y0070750D01*
X0068650Y0076250D02*
X0069150Y0076250D01*
X0069150Y0070750D01*
X0068650Y0070750D01*
X0068650Y0075249D02*
X0069150Y0075249D01*
X0076550Y0076250D02*
X0076550Y0070750D01*
X0076550Y0076250D02*
X0077050Y0076250D01*
X0077050Y0070750D01*
X0076550Y0070750D01*
X0076550Y0075249D02*
X0077050Y0075249D01*
X0076550Y0145750D02*
X0076550Y0151250D01*
X0077050Y0151250D01*
X0077050Y0145750D01*
X0076550Y0145750D01*
X0076550Y0150249D02*
X0077050Y0150249D01*
X0068650Y0151250D02*
X0068650Y0145750D01*
X0068650Y0151250D02*
X0069150Y0151250D01*
X0069150Y0145750D01*
X0068650Y0145750D01*
X0068650Y0150249D02*
X0069150Y0150249D01*
X0031150Y0151250D02*
X0031150Y0145750D01*
X0031150Y0151250D02*
X0031650Y0151250D01*
X0031650Y0145750D01*
X0031150Y0145750D01*
X0031150Y0150249D02*
X0031650Y0150249D01*
X0023250Y0151250D02*
X0023250Y0145750D01*
X0023250Y0151250D02*
X0023750Y0151250D01*
X0023750Y0145750D01*
X0023250Y0145750D01*
X0023250Y0150249D02*
X0023750Y0150249D01*
M02*
