%
M48
M72
T01C0.01200
T02C0.03937
T03C0.04000
%
T01
X59500Y92500
X66000Y136000
X76000Y158500
X86000Y168500
X48500Y161000
X63500Y26000
T02
X26000Y168795
X26000Y192811
X7102Y181000
T03
X11000Y126000
X11000Y116000
X11000Y106000
X11000Y96000
X11000Y86000
X11000Y76000
X11000Y66000
X11000Y56000
X11000Y46000
X11000Y13500
X21000Y13500
X31000Y13500
X41000Y13500
X51000Y13500
X86000Y13500
X96000Y13500
X91000Y46000
X91000Y56000
X91000Y66000
X91000Y76000
X91000Y86000
X91000Y96000
X91000Y106000
X91000Y116000
X91000Y126000
X126000Y121000
X126000Y131000
X126000Y141000
X126000Y186000
X116000Y186000
X106000Y186000
X81000Y186000
X71000Y186000
X61000Y186000
X126000Y86000
X126000Y76000
X126000Y66000
M30
